<svg width="27" height="20" viewBox="0 0 27 20" fill="none" xmlns="http://www.w3.org/2000/svg">
<g clip-path="url(#clip0_2_851)">
<path d="M25.6176 3.84946C25.3335 2.78344 24.4967 1.94401 23.4338 1.65912C21.5077 1.14136 13.7837 1.14136 13.7837 1.14136C13.7837 1.14136 6.05982 1.14136 4.13358 1.65912C3.07088 1.94401 2.23388 2.78344 1.94985 3.84946C1.43372 5.78151 1.43372 9.81259 1.43372 9.81259C1.43372 9.81259 1.43372 13.8437 1.94985 15.7759C2.23388 16.8418 3.07088 17.6812 4.13358 17.9662C6.05982 18.4839 13.7837 18.4839 13.7837 18.4839C13.7837 18.4839 21.5077 18.4839 23.4338 17.9662C24.4967 17.6812 25.3335 16.8418 25.6176 15.7759C26.1337 13.8437 26.1337 9.81259 26.1337 9.81259C26.1337 9.81259 26.1337 5.78151 25.6176 3.84946Z" fill="#ED1D24"/>
<path d="M11.257 13.4725L17.7127 9.81273L11.257 6.15259V13.4725Z" fill="white"/>
</g>
<defs>
<clipPath id="clip0_2_851">
<rect width="26" height="19" fill="white" transform="translate(0.783691 0.3125)"/>
</clipPath>
</defs>
</svg>
