<svg width="25" height="25" viewBox="0 0 25 25" fill="none" xmlns="http://www.w3.org/2000/svg">
<g clip-path="url(#clip0_2_857)">
<path fill-rule="evenodd" clip-rule="evenodd" d="M23.2238 20.7622C22.9998 21.3311 22.4831 22.132 21.7502 22.6963C21.327 23.0222 20.8219 23.3338 20.1281 23.5393C19.3884 23.7585 18.4774 23.8326 17.3434 23.8326H6.97551C5.84168 23.8326 4.93063 23.7585 4.19089 23.5393C3.49702 23.3338 2.99197 23.0222 2.56876 22.6963C1.83598 22.132 1.31911 21.3312 1.09514 20.7622C0.644105 19.616 0.639526 18.3155 0.639526 17.4965V7.12846C0.639526 6.30951 0.644105 5.00895 1.09524 3.86277C1.3192 3.29389 1.83598 2.4929 2.56885 1.92869C2.99197 1.60281 3.49712 1.29132 4.19089 1.08576C4.93063 0.866555 5.84168 0.79248 6.97551 0.79248H17.3435C18.4774 0.79248 19.3884 0.866555 20.1282 1.08576C20.822 1.29132 21.327 1.6029 21.7503 1.92869C22.4831 2.49299 22.9999 3.29389 23.2239 3.86277C23.6749 5.00895 23.6795 6.30951 23.6795 7.12846V17.4964C23.6795 18.3155 23.6749 19.616 23.2238 20.7622Z" fill="url(#paint0_linear_2_857)"/>
<path d="M13.8297 14.0354C13.4841 13.6707 12.8768 13.4369 12.1599 13.4369C11.4429 13.4369 10.8356 13.6707 10.49 14.0354C10.3096 14.2258 10.2141 14.4209 10.1841 14.6989C10.126 15.2373 10.1586 15.7007 10.2217 16.4418C10.2818 17.1479 10.3959 18.0895 10.5448 19.0486C10.6507 19.7311 10.7368 20.0995 10.8152 20.3634C10.9423 20.7909 11.4172 21.1647 12.1599 21.1647C12.9025 21.1647 13.3774 20.7908 13.5045 20.3634C13.583 20.0996 13.6691 19.7312 13.775 19.0486C13.924 18.0895 14.0379 17.148 14.098 16.4418C14.161 15.7007 14.1937 15.2372 14.1355 14.6989C14.1056 14.4209 14.0102 14.2259 13.8297 14.0354ZM10.2761 10.7874C10.2761 11.8289 11.1204 12.673 12.1618 12.673C13.2031 12.673 14.0473 11.8289 14.0473 10.7874C14.0473 9.74605 13.2031 8.90175 12.1618 8.90175C11.1204 8.90175 10.2761 9.74605 10.2761 10.7874ZM12.1384 3.34598C7.7283 3.35852 4.11487 6.93616 4.0602 11.3458C4.01598 14.918 6.29617 17.9736 9.48028 19.0936C9.55764 19.1208 9.63611 19.0567 9.62384 18.9756C9.58218 18.6983 9.54281 18.4196 9.50655 18.1455C9.49373 18.0486 9.43202 17.9651 9.34247 17.926C6.82586 16.8265 5.0684 14.3024 5.0966 11.3788C5.1336 7.54185 8.26661 4.41387 12.1036 4.38284C16.026 4.35116 19.2271 7.53279 19.2271 11.448C19.2271 14.3424 17.4774 16.8355 14.9802 17.9262C14.8909 17.9653 14.8295 18.0491 14.8168 18.1458C14.7806 18.4198 14.7412 18.6983 14.6995 18.9755C14.6873 19.0565 14.7658 19.1207 14.8431 19.0935C17.9968 17.9842 20.2637 14.9761 20.2637 11.448C20.2639 6.97278 16.6166 3.33334 12.1384 3.34598ZM11.992 7.06316C14.4919 6.96628 16.5566 8.97197 16.5566 11.4507C16.5566 12.7114 16.0224 13.8496 15.1687 14.6511C15.0964 14.7191 15.0574 14.8155 15.0631 14.9146C15.0801 15.2162 15.0738 15.5091 15.0538 15.84C15.0484 15.9282 15.1473 15.9845 15.2201 15.9347C16.6518 14.9565 17.5933 13.3116 17.5933 11.4506C17.5933 8.38661 15.0411 5.90736 11.951 6.02713C9.07914 6.13837 6.77504 8.50619 6.73832 11.3799C6.71415 13.27 7.66147 14.9444 9.11137 15.935C9.18415 15.9847 9.28277 15.9282 9.27746 15.8402C9.25732 15.5091 9.25118 15.2161 9.26813 14.9146C9.27362 14.8156 9.23479 14.7192 9.16246 14.6513C8.28217 13.8248 7.74158 12.6404 7.77601 11.3329C7.83662 9.03186 9.69178 7.15226 11.992 7.06316Z" fill="white"/>
</g>
<defs>
<linearGradient id="paint0_linear_2_857" x1="12.1595" y1="0.792481" x2="12.1595" y2="23.8325" gradientUnits="userSpaceOnUse">
<stop stop-color="#F452FF"/>
<stop offset="1" stop-color="#832BC1"/>
</linearGradient>
<clipPath id="clip0_2_857">
<rect width="24" height="24" fill="white" transform="translate(0.159546 0.3125)"/>
</clipPath>
</defs>
</svg>
