<svg width="24" height="24" viewBox="0 0 24 24" fill="none" xmlns="http://www.w3.org/2000/svg">
<g clip-path="url(#clip0_2_967)">
<path fill-rule="evenodd" clip-rule="evenodd" d="M17.293 8.29299C17.3853 8.19748 17.4956 8.1213 17.6176 8.06889C17.7396 8.01648 17.8708 7.98889 18.0036 7.98774C18.1364 7.98659 18.2681 8.01189 18.391 8.06217C18.5139 8.11245 18.6255 8.1867 18.7194 8.28059C18.8133 8.37449 18.8876 8.48614 18.9378 8.60904C18.9881 8.73193 19.0134 8.86361 19.0123 8.99639C19.0111 9.12917 18.9835 9.26039 18.9311 9.38239C18.8787 9.5044 18.8025 9.61474 18.707 9.70699L12.707 15.707C12.5248 15.8893 12.2792 15.9941 12.0215 15.9997C11.7639 16.0053 11.514 15.9112 11.324 15.737L5.32401 10.237C5.12855 10.0577 5.01231 9.80811 5.00087 9.54312C4.99521 9.41191 5.01544 9.28087 5.06042 9.15749C5.1054 9.0341 5.17424 8.92077 5.26301 8.82399C5.35178 8.72721 5.45875 8.64885 5.57781 8.59341C5.69686 8.53796 5.82567 8.50651 5.95688 8.50085C6.22187 8.48941 6.48055 8.5837 6.67601 8.76299L11.97 13.616L17.293 8.29299Z" fill="#848895"/>
</g>
<defs>
<clipPath id="clip0_2_967">
<rect width="24" height="24" fill="white"/>
</clipPath>
</defs>
</svg>
